<?xml version="1.0" encoding="UTF-8" standalone="no"?><!DOCTYPE svg PUBLIC "-//W3C//DTD SVG 1.1//EN" "http://www.w3.org/Graphics/SVG/1.1/DTD/svg11.dtd"><svg width="100%" height="100%" viewBox="0 0 180 60" version="1.1" xmlns="http://www.w3.org/2000/svg" xmlns:xlink="http://www.w3.org/1999/xlink" xml:space="preserve" xmlns:serif="http://www.serif.com/" style="fill-rule:evenodd;clip-rule:evenodd;stroke-linejoin:round;stroke-miterlimit:2;"><g><g><path d="M77.075,35.347c0.312,0 0.657,-0.065 1.034,-0.197c0.377,-0.131 0.722,-0.295 1.033,-0.492l0,-5.07c-0.311,-0.246 -0.664,-0.447 -1.058,-0.602c-0.393,-0.156 -0.771,-0.234 -1.132,-0.234c-0.968,0 -1.645,0.361 -2.03,1.082c-0.385,0.722 -0.578,1.461 -0.578,2.215c0,0.87 0.197,1.637 0.59,2.301c0.394,0.665 1.108,0.997 2.141,0.997Zm5.709,-14.618l0,17.374l-1.87,0l-0.861,-1.181c-0.476,0.41 -1.062,0.759 -1.76,1.045c-0.697,0.287 -1.423,0.431 -2.177,0.431c-1.805,0 -3.175,-0.603 -4.11,-1.808c-0.935,-1.206 -1.403,-2.703 -1.403,-4.492c0,-1.804 0.488,-3.317 1.464,-4.54c0.977,-1.222 2.391,-1.833 4.245,-1.833c0.41,0 0.87,0.066 1.379,0.197c0.508,0.131 0.992,0.319 1.451,0.566l0,-5.488l3.642,-0.271Z" style="fill:#2a2e30;fill-rule:nonzero;"/><path d="M92.783,26.168l0.738,2.904c-0.558,0 -1.181,0.131 -1.87,0.393c-0.689,0.263 -1.345,0.665 -1.969,1.206l0,7.432l-3.617,0l0,-11.91l1.846,0l1.082,1.574c0.492,-0.41 1.083,-0.779 1.772,-1.107c0.689,-0.328 1.361,-0.492 2.018,-0.492Z" style="fill:#2a2e30;fill-rule:nonzero;"/><path d="M101.285,35.347c0.837,0 1.514,-0.25 2.03,-0.751c0.517,-0.5 0.776,-1.292 0.776,-2.375c0,-1.017 -0.231,-1.833 -0.69,-2.448c-0.459,-0.615 -1.107,-0.923 -1.944,-0.923c-0.836,0 -1.497,0.271 -1.981,0.812c-0.484,0.541 -0.725,1.346 -0.725,2.412c0,1.05 0.212,1.858 0.639,2.424c0.427,0.566 1.058,0.849 1.895,0.849Zm0.123,-9.524c1.969,0 3.531,0.571 4.688,1.711c1.157,1.14 1.735,2.703 1.735,4.687c0,1.937 -0.615,3.446 -1.846,4.529c-1.23,1.082 -2.814,1.624 -4.749,1.624c-1.903,0 -3.417,-0.55 -4.541,-1.649c-1.123,-1.099 -1.685,-2.641 -1.685,-4.627c0,-1.952 0.59,-3.486 1.771,-4.602c1.182,-1.115 2.724,-1.673 4.627,-1.673Z" style="fill:#2a2e30;fill-rule:nonzero;"/><path d="M117.661,25.725c1.641,0 2.81,0.472 3.507,1.415c0.697,0.943 1.046,2.112 1.046,3.506l0,7.457l-3.618,0l0,-7.309c0,-0.656 -0.168,-1.16 -0.504,-1.513c-0.336,-0.353 -0.799,-0.529 -1.39,-0.529c-0.394,0 -0.833,0.102 -1.317,0.307c-0.484,0.206 -0.922,0.44 -1.316,0.701l0,8.343l-3.618,0l0,-11.935l1.87,0l0.96,1.206c0.525,-0.46 1.198,-0.849 2.018,-1.169c0.82,-0.32 1.608,-0.48 2.362,-0.48Z" style="fill:#2a2e30;fill-rule:nonzero;"/><path d="M130.802,28.826c-0.558,0 -1.034,0.18 -1.427,0.541c-0.394,0.361 -0.648,0.87 -0.763,1.526l4.355,0c-0.114,-0.624 -0.352,-1.124 -0.713,-1.502c-0.361,-0.377 -0.845,-0.565 -1.452,-0.565Zm0.098,-3.003c1.871,0 3.257,0.616 4.159,1.846c0.902,1.231 1.354,2.691 1.354,4.38l0,1.182l-7.777,0c0.164,0.672 0.505,1.197 1.022,1.575c0.516,0.377 1.177,0.566 1.981,0.566c0.541,0 1.045,-0.062 1.513,-0.185c0.468,-0.123 0.972,-0.316 1.513,-0.578l1.059,2.559c-0.607,0.459 -1.346,0.779 -2.215,0.96c-0.87,0.18 -1.559,0.27 -2.067,0.27c-2.018,0 -3.638,-0.545 -4.86,-1.636c-1.223,-1.091 -1.834,-2.629 -1.834,-4.614c0,-1.936 0.567,-3.474 1.698,-4.614c1.133,-1.14 2.617,-1.711 4.454,-1.711Z" style="fill:#2a2e30;fill-rule:nonzero;"/><path d="M144.681,38.521c-1.476,0 -2.695,-0.377 -3.655,-1.132c-0.959,-0.754 -1.439,-1.861 -1.439,-3.322l0,-4.922l-1.698,0l0,-2.805l1.698,0l0,-2.953l3.593,-0.591l0,3.544l2.412,0l0.787,2.805l-3.199,0l0,4.381c0,0.574 0.148,1.046 0.443,1.415c0.295,0.369 0.721,0.554 1.279,0.554c0.213,0 0.443,-0.033 0.69,-0.099c0.246,-0.065 0.491,-0.156 0.738,-0.271l1.058,2.56c-0.28,0.23 -0.69,0.426 -1.231,0.59c-0.541,0.164 -1.033,0.246 -1.476,0.246Z" style="fill:#2a2e30;fill-rule:nonzero;"/><path d="M153.144,35.495c0.377,0 0.762,-0.087 1.156,-0.259c0.394,-0.172 0.771,-0.422 1.132,-0.75l0,-1.501l-2.067,0c-0.476,0 -0.845,0.139 -1.107,0.418c-0.263,0.279 -0.394,0.607 -0.394,0.984c0,0.295 0.123,0.554 0.369,0.775c0.246,0.222 0.55,0.333 0.911,0.333Zm0.787,-9.672c1.493,0 2.719,0.427 3.679,1.28c0.96,0.853 1.44,1.952 1.44,3.297l0,7.703l-1.772,0l-0.787,-0.984c-0.411,0.361 -0.915,0.664 -1.514,0.91c-0.599,0.246 -1.21,0.369 -1.833,0.369c-1.477,0 -2.572,-0.365 -3.286,-1.095c-0.713,-0.73 -1.07,-1.685 -1.07,-2.867c0,-1.246 0.422,-2.19 1.267,-2.83c0.845,-0.639 1.948,-0.96 3.31,-0.96l2.043,0c-0.033,-0.508 -0.21,-0.91 -0.529,-1.205c-0.32,-0.296 -0.743,-0.443 -1.268,-0.443c-0.509,0 -1.074,0.074 -1.698,0.221c-0.623,0.148 -1.165,0.329 -1.624,0.541l-0.96,-2.854c0.509,-0.295 1.239,-0.549 2.191,-0.763c0.951,-0.213 1.755,-0.32 2.411,-0.32Z" style="fill:#2a2e30;fill-rule:nonzero;"/><path d="M165.332,32.074c0,0.869 0.197,1.636 0.59,2.301c0.395,0.664 1.108,0.997 2.142,0.997c0.311,0 0.66,-0.07 1.045,-0.21c0.385,-0.139 0.734,-0.299 1.046,-0.48l0,-5.094c-0.328,-0.229 -0.689,-0.426 -1.083,-0.59c-0.393,-0.164 -0.762,-0.246 -1.107,-0.246c-0.984,0 -1.669,0.365 -2.055,1.095c-0.385,0.73 -0.578,1.472 -0.578,2.227Zm8.441,-5.881l0,11.91c0,1.542 -0.513,2.789 -1.538,3.741c-1.026,0.951 -2.597,1.427 -4.713,1.427c-0.508,0 -1.255,-0.115 -2.239,-0.345c-0.985,-0.23 -1.813,-0.574 -2.485,-1.033l1.082,-2.535c0.755,0.361 1.394,0.619 1.92,0.775c0.524,0.156 1.074,0.234 1.648,0.234c0.886,0 1.559,-0.201 2.018,-0.603c0.459,-0.402 0.689,-0.947 0.689,-1.636l0,-0.542c-0.459,0.246 -0.951,0.439 -1.476,0.579c-0.525,0.139 -1.042,0.209 -1.55,0.209c-1.806,0 -3.175,-0.599 -4.11,-1.797c-0.935,-1.197 -1.403,-2.69 -1.403,-4.479c0,-1.804 0.484,-3.317 1.452,-4.54c0.968,-1.222 2.379,-1.833 4.233,-1.833c0.607,0 1.271,0.135 1.993,0.406c0.722,0.27 1.345,0.619 1.87,1.046l0.763,-0.984l1.846,0Z" style="fill:#2a2e30;fill-rule:nonzero;"/><path d="M15.997,20.16l-9.77,0l13.671,23.68l4.891,-8.47l-8.792,-15.21Z" style="fill:url(#_Linear1);"/><path d="M19.94,20.16l-3.988,0l8.809,15.258l1.995,-3.456l-6.816,-11.802Z" style="fill:#2c51a4;fill-rule:nonzero;"/><path d="M36.988,49.76l20.507,-35.52l-41.014,0l20.507,35.52Z" style="fill:url(#_Linear2);"/></g></g><defs><linearGradient id="_Linear1" x1="0" y1="0" x2="1" y2="0" gradientUnits="userSpaceOnUse" gradientTransform="matrix(7.33528,-4.23503,4.23503,7.33528,13.0627,32.0002)"><stop offset="0" style="stop-color:#4e5aa8;stop-opacity:1"/><stop offset="1" style="stop-color:#5066af;stop-opacity:1"/></linearGradient><linearGradient id="_Linear2" x1="0" y1="0" x2="1" y2="0" gradientUnits="userSpaceOnUse" gradientTransform="matrix(30.7605,-17.7596,17.7596,30.7605,26.7341,32.0002)"><stop offset="0" style="stop-color:#3d96d2;stop-opacity:1"/><stop offset="0.5" style="stop-color:#18c1f2;stop-opacity:1"/><stop offset="1" style="stop-color:#2cc4ef;stop-opacity:1"/></linearGradient></defs></svg>