<?xml version="1.0" encoding="UTF-8"?> <svg xmlns="http://www.w3.org/2000/svg" viewBox="0 0 267.94 47.27"><defs><style>.cls-1{fill:#5bc4f1;}</style></defs><g id="Layer_2" data-name="Layer 2"><g id="Layer_1-2" data-name="Layer 1"><path class="cls-1" d="M83.89.61,67.34,24.45,50.78.61a1.42,1.42,0,1,0-2.33,1.62L66.17,27.75a1.43,1.43,0,0,0,1.17.61,1.41,1.41,0,0,0,1.16-.61L86.22,2.23a1.43,1.43,0,0,0-.35-2A1.44,1.44,0,0,0,83.89.61Zm133.26,0L200.6,24.45,184,.61a1.42,1.42,0,1,0-2.33,1.62l17.72,25.52a1.45,1.45,0,0,0,1.17.61,1.41,1.41,0,0,0,1.16-.61L219.48,2.23a1.43,1.43,0,0,0-.35-2A1.44,1.44,0,0,0,217.15.61Zm-40,24.91H150.27V1.42a1.42,1.42,0,1,0-2.83,0V28.36H177.2a1.42,1.42,0,1,0,0-2.84ZM119.08,0h-9.92a14.18,14.18,0,1,0,0,28.36h9.92a14.18,14.18,0,0,0,0-28.36Zm0,25.52h-9.92a11.34,11.34,0,0,1,0-22.68h9.92a11.34,11.34,0,0,1,0,22.68ZM0,14.18A14.19,14.19,0,0,0,14.18,28.36H24.47a1.42,1.42,0,0,0,0-2.84H14.18a11.34,11.34,0,0,1,0-22.68H35.35A11.36,11.36,0,0,1,24.1,12.76H13.91a1.42,1.42,0,0,0,0,2.84H24.1A14.19,14.19,0,0,0,38.28,1.42V0H14.18A14.19,14.19,0,0,0,0,14.18ZM243.84,0a14.18,14.18,0,0,0,0,28.36h10.29a1.42,1.42,0,1,0,0-2.84H243.84a11.34,11.34,0,0,1,0-22.68H265a11.36,11.36,0,0,1-11.25,9.92H243.57a1.42,1.42,0,1,0,0,2.84h10.19A14.19,14.19,0,0,0,267.94,1.42V0Z"></path><path class="cls-1" d="M44.36,39.7A4.15,4.15,0,0,0,42.84,39,8.69,8.69,0,0,0,41,38.82H36.76v8.3H41A8.36,8.36,0,0,0,42.28,47a5.4,5.4,0,0,0,1.12-.27,3.77,3.77,0,0,0,1-.52,3.17,3.17,0,0,0,.75-.8,3.8,3.8,0,0,0,.47-1.08,5.42,5.42,0,0,0,.17-1.4,4.6,4.6,0,0,0-.37-2A3.18,3.18,0,0,0,44.36,39.7Zm-.17,4.7a2.12,2.12,0,0,1-.67.87,2.69,2.69,0,0,1-1.06.46,6.46,6.46,0,0,1-1.44.14h-3v-5.8h3a7.91,7.91,0,0,1,1,.06,3.68,3.68,0,0,1,.84.19,2.67,2.67,0,0,1,.67.35,2,2,0,0,1,.48.51,2.56,2.56,0,0,1,.31.75,4.07,4.07,0,0,1,.12,1A3.63,3.63,0,0,1,44.19,44.4Zm53.35.78-6.29-6.36H90.09v8.3H91.4V40.78l6.29,6.34h1.15v-8.3h-1.3Zm23.74-6.3L117,47.12h.17l1.31-.06,1-2,4.89-.06,1.14,2.09h1.39l-4.4-8.3Zm-1.14,5,1.77-3.38,1.77,3.38Zm30.39,1.69-4.39-6.71H145v8.3h1.31V41.27l3.82,5.85.92,0,3.73-5.77v5.82H156v-8.3l-1.24,0Zm24.83,1.59h1.31v-8.3h-1.31Zm29-7.66c-.27-.11-.54-.22-.81-.31s-.56-.18-.85-.25a8.57,8.57,0,0,0-.93-.16,8.67,8.67,0,0,0-1.06-.06,7.67,7.67,0,0,0-1.37.12,5.46,5.46,0,0,0-1.23.35,4.49,4.49,0,0,0-1,.6,3.76,3.76,0,0,0-1.35,1.92,4.58,4.58,0,0,0,0,2.61A3.76,3.76,0,0,0,197,46.2a4.49,4.49,0,0,0,1,.6,6.22,6.22,0,0,0,1.24.35,7.64,7.64,0,0,0,1.36.12,8.67,8.67,0,0,0,1.06-.06,8.57,8.57,0,0,0,.93-.16c.3-.07.58-.16.85-.25s.54-.2.81-.32l.19-.07v-1.6l-.47.31c-.19.12-.4.24-.62.35a5.09,5.09,0,0,1-.75.29,5.4,5.4,0,0,1-.88.21,7.27,7.27,0,0,1-2.82-.16,3.36,3.36,0,0,1-1.24-.62,2.3,2.3,0,0,1-.69-.94,3.26,3.26,0,0,1-.23-1.27,3.33,3.33,0,0,1,.23-1.29,2.44,2.44,0,0,1,.69-.94,3.36,3.36,0,0,1,1.24-.62,6.22,6.22,0,0,1,1.83-.23,6,6,0,0,1,1,.07,7,7,0,0,1,.87.2,7.13,7.13,0,0,1,.74.3c.23.12.45.24.65.37l.47.29V39.61l-.12-.12ZM230.53,44a2,2,0,0,0-.57-.62,3.71,3.71,0,0,0-.79-.45c-.29-.12-.59-.23-.91-.33s-.65-.19-1-.27l-1-.24c-.31-.08-.6-.17-.87-.26a4.36,4.36,0,0,1-.68-.28,1.32,1.32,0,0,1-.4-.31.46.46,0,0,1-.11-.32.63.63,0,0,1,.13-.41,1,1,0,0,1,.44-.33,3.57,3.57,0,0,1,.82-.22,8,8,0,0,1,1.16-.07,7.06,7.06,0,0,1,1.77.21,3.94,3.94,0,0,1,.61.21c.19.07.35.15.49.21l.44.22v-.16L230,39.2l-.88-.22c-.24-.06-.49-.11-.74-.15s-.52-.08-.8-.11-.57,0-.88,0-.56,0-.85,0a7.55,7.55,0,0,0-.85.13,3.76,3.76,0,0,0-.78.26,2.86,2.86,0,0,0-.68.41,1.89,1.89,0,0,0-.47.62,1.8,1.8,0,0,0-.18.82,1.58,1.58,0,0,0,.23.84,2.06,2.06,0,0,0,.57.61,3.57,3.57,0,0,0,.8.43c.28.12.59.22.91.32s.63.17,1,.25l1,.23c.3.08.59.16.86.26a3,3,0,0,1,.67.29,1.31,1.31,0,0,1,.41.35.57.57,0,0,1,.12.37.7.7,0,0,1-.16.48,1.41,1.41,0,0,1-.52.36,4,4,0,0,1-.89.23,9.58,9.58,0,0,1-2.9-.09,4.87,4.87,0,0,1-1.51-.58L223,45v.18l.07,1.45.13.05a10.34,10.34,0,0,0,3.47.56c.3,0,.6,0,.91,0a6.43,6.43,0,0,0,.91-.13,4.43,4.43,0,0,0,.85-.26,2.76,2.76,0,0,0,.73-.43,2,2,0,0,0,.51-.65,2,2,0,0,0,.2-.89A1.65,1.65,0,0,0,230.53,44ZM71.78,38.82l-1.44,0-3,3.63-3-3.67H62.79l3.95,4.74v3.56h1.31l0-3.5,4-4.8Z"></path></g></g></svg> 